PathFileType	4	(X/Y/Z)	C:/Users/opensim2020/Desktop/walking_exp_matlab/subject02_walking04_straight_03.trc																																																																																																																												
DataRate	CameraRate	NumFrames	NumMarkers	Units	OrigDataRate	OrigDataStartFrame	OrigNumFrames																																																																																																																								
100	100	6	42	mm	100	2233	222																																																																																																																								
Frame#	Time	LFHD			RFHD			LBHD			RBHD			C7			T10			CLAV			STRN			RBAK			LSHO			LUPA			LELB			LFRM			LWRA			LWRB			LFIN			RSHO			RUPA			RELB			RFRM			RWRA			RWRB			RFIN			LASI			RASI			LPSI			RPSI			LTHI			LKNE			LTIB			LANK			LHEE			LTOE			RTHI			RKNE			RTIB			RANK			RHEE			RTOE			*39			*40			*41		
		X1	Y1	Z1	X2	Y2	Z2	X3	Y3	Z3	X4	Y4	Z4	X5	Y5	Z5	X6	Y6	Z6	X7	Y7	Z7	X8	Y8	Z8	X9	Y9	Z9	X10	Y10	Z10	X11	Y11	Z11	X12	Y12	Z12	X13	Y13	Z13	X14	Y14	Z14	X15	Y15	Z15	X16	Y16	Z16	X17	Y17	Z17	X18	Y18	Z18	X19	Y19	Z19	X20	Y20	Z20	X21	Y21	Z21	X22	Y22	Z22	X23	Y23	Z23	X24	Y24	Z24	X25	Y25	Z25	X26	Y26	Z26	X27	Y27	Z27	X28	Y28	Z28	X29	Y29	Z29	X30	Y30	Z30	X31	Y31	Z31	X32	Y32	Z32	X33	Y33	Z33	X34	Y34	Z34	X35	Y35	Z35	X36	Y36	Z36	X37	Y37	Z37	X38	Y38	Z38	X39	Y39	Z39	X40	Y40	Z40	X41	Y41	Z41	X42	Y42	Z42
																																																																																																																															
28	0.27	-713.42029	1731.58801	-1090.58691	-728.20142	1718.75122	-945.60547	-837.93506	1652.22339	-1109.20142	-866.94556	1637.47681	-969.44653	-904.09784	1520.79529	-1030.58191	-962.48529	1243.30945	-1024.83276	-767.0022	1445.96436	-1037.99829	-718.3833	1275.71106	-1024.69775	-966.07434	1347.05676	-963.95892	-827.81183	1485.88367	-1210.35315	-834.40326	1283.46143	-1295.55664	-835.22424	1144.02747	-1310.15845	-820.7309	1014.58905	-1328.50317	-760.04718	890.76978	-1301.93823	-805.58887	892.72357	-1336.39954	-783.91571	830.03088	-1342.7428	-826.56445	1487.2677	-842.21313	-854.68774	1297.44836	-755.3468	-835.7749	1150.92737	-739.40399	-798.68469	1035.16736	-723.04114	-742.27966	912.83655	-748.47052	-786.99573	905.05597	-713.24811	-744.31598	846.07648	-714.51178	-710.07227	993.05914	-1155.54321	-728.48065	964.98804	-898.4931	-929.13409	1025.93945	-1087.69946	-940.93781	1017.57141	-973.87842	-748.8551	683.28699	-1218.20911	-767.53375	478.43436	-1190.84424	-813.05139	287.76157	-1193.96008	-799.76904	65.3455	-1156.703	-836.32068	36.8486	-1106.85156	-641.62714	31.36389	-1163.22241	-796.67291	661.04041	-821.03619	-778.59857	464.3616	-823.47064	-922.7005	352.46121	-829.08276	-1058.60876	219.64288	-870.81561	-1105.61169	196.20491	-937.59717	-1005.46057	71.40452	-831.32971	-824.6825	1797.15015	-1014.14661	2845.69189	1033.94617	-3357.36353	NaN	NaN	NaN
29	0.28	-705.20514	1732.45471	-1092.58545	-720.2597	1719.87439	-947.78473	-829.98071	1652.81177	-1111.21204	-858.78754	1638.59314	-971.85352	-895.8493	1521.68176	-1032.92883	-954.13159	1244.15515	-1027.50232	-758.75885	1446.76013	-1039.97729	-710.41638	1276.30664	-1026.61572	-958.11243	1348.04126	-966.71008	-818.66919	1486.95203	-1212.48047	-823.09729	1284.27661	-1297.50415	-822.06165	1144.90857	-1312.74231	-805.3114	1015.56787	-1330.54065	-743.1507	893.02234	-1302.90149	-788.07935	894.10754	-1337.81226	-765.11255	832.01727	-1344.09656	-818.39911	1487.85791	-844.42389	-848.23651	1298.54309	-757.5329	-831.26166	1151.96228	-741.41669	-794.58295	1035.84961	-724.89551	-738.75073	913.09076	-749.04694	-784.07465	905.55865	-714.80353	-741.59198	846.42511	-715.49048	-702.53998	992.98889	-1158.07886	-720.91052	966.21136	-900.30688	-921.66431	1026.55396	-1089.86487	-933.3916	1018.56561	-976.27545	-744.23828	682.94623	-1219.77588	-765.44153	478.29453	-1191.84338	-812.08673	287.79437	-1194.29517	-799.87067	65.35274	-1156.62085	-836.63318	36.95881	-1106.94153	-641.66339	31.34544	-1163.37085	-783.04443	662.67499	-822.53833	-761.55933	466.67981	-825.60773	-904.61298	353.35071	-832.20905	-1038.13257	218.24536	-873.89728	-1084.35547	192.52158	-940.79083	-981.60785	72.53458	-830.85175	-816.9718	1797.84338	-1016.55994	2845.20557	1033.73267	-3360.18311	NaN	NaN	NaN
30	0.29	-697.26892	1733.21814	-1094.5918	-712.18787	1720.84558	-949.8761	-821.99921	1653.46436	-1113.29553	-850.80957	1639.19397	-973.67505	-887.67255	1522.44507	-1035.26575	-946.09125	1244.99634	-1030.24939	-750.53674	1447.50635	-1041.94971	-702.43695	1276.9231	-1028.55676	-950.23926	1348.80188	-969.44092	-809.57245	1488.02026	-1214.57996	-812.01941	1285.68762	-1300.224	-809.07312	1145.99817	-1314.95081	-789.9718	1016.8595	-1332.37012	-726.04523	895.51776	-1303.79773	-770.57898	895.67804	-1339.20227	-746.15076	833.90106	-1345.26807	-810.81531	1488.54492	-846.57953	-842.13214	1299.51331	-759.70392	-825.9126	1152.86963	-743.34625	-790.2793	1036.34436	-726.55371	-735.47125	913.43103	-750.4491	-781.03595	906.30267	-716.02692	-738.76117	846.85803	-716.43805	-695.23926	993.18567	-1160.47473	-713.30109	967.73828	-902.25385	-914.27722	1027.08191	-1091.82227	-925.80194	1019.46429	-978.41656	-739.68628	682.534	-1221.15845	-763.26312	478.1561	-1192.78894	-811.25067	287.82596	-1194.36157	-799.91022	65.36154	-1156.5426	-836.59741	36.94286	-1106.71875	-641.80292	31.14952	-1163.46521	-769.4502	664.3136	-823.97668	-744.78009	468.82721	-827.88593	-886.28436	353.71957	-835.27643	-1017.00922	215.85191	-876.67017	-1062.75562	187.94177	-943.37933	-956.75311	72.97565	-830.92682	-809.04602	1798.72437	-1018.64209	2845.10791	1033.73303	-3360.21729	NaN	NaN	NaN
31	0.3	-687.06238	1733.58936	-1094.16516	-704.42438	1721.60767	-951.66791	-814.13702	1654.26013	-1115.53442	-842.81946	1639.8479	-975.51978	-879.53424	1523.12939	-1037.45544	-938.03149	1245.76514	-1032.88806	-742.36548	1448.10608	-1043.78455	-694.37219	1277.42444	-1030.59045	-942.40765	1349.44507	-972.08801	-800.5874	1489.0293	-1216.48889	-800.97961	1286.8645	-1302.28784	-796.03119	1147.15979	-1317.23975	-774.63269	1018.30206	-1334.24939	-708.69769	898.29327	-1304.88196	-753.08502	897.46918	-1340.5033	-727.12335	836.59436	-1346.73914	-803.18231	1489.19543	-848.63678	-835.26831	1300.38745	-761.74255	-821.09296	1153.9054	-745.16595	-786.04865	1037.07935	-727.91711	-732.05475	913.63599	-751.23425	-777.57294	906.86444	-717.26404	-735.90985	847.29199	-717.33765	-688.09015	993.58667	-1162.84351	-705.65112	969.39917	-904.30438	-906.92499	1027.47827	-1093.55054	-918.05804	1020.16919	-980.30133	-735.33777	682.03857	-1222.44312	-760.92633	478.03433	-1193.55042	-810.4303	288.02338	-1194.51501	-799.88129	65.39778	-1156.42981	-836.62439	37.02493	-1106.62329	-641.8078	31.12838	-1163.54724	-755.90118	665.87158	-825.33429	-728.3338	470.97714	-830.20746	-867.70349	353.47964	-838.13312	-995.63477	212.65843	-879.02173	-1040.29517	182.28929	-945.39752	-930.83899	72.77749	-831.51776	-801.26447	1799.3811	-1020.46417	2845.15552	1033.83691	-3360.24951	NaN	NaN	NaN
32	0.31	-679.1311	1734.24805	-1095.73987	-696.47351	1722.13989	-953.39648	-805.80133	1654.41541	-1116.62634	-834.9679	1640.57458	-977.49347	-871.14008	1523.54651	-1039.79419	-930.05713	1246.48792	-1035.43872	-734.14124	1448.70227	-1045.56091	-686.44373	1277.89001	-1032.46667	-934.49457	1350.02673	-974.69171	-791.64087	1489.96301	-1218.30713	-790.15839	1287.81213	-1303.63831	-783.1947	1148.48877	-1319.31946	-759.23969	1019.83319	-1336.07397	-691.55121	901.13531	-1305.61975	-735.54083	899.35828	-1341.6698	-708.35992	839.13611	-1347.40991	-795.58191	1489.72913	-850.71454	-829.35181	1301.45605	-763.80371	-815.65112	1154.57568	-747.02844	-781.63879	1037.698	-729.38086	-728.5451	913.84479	-752.11786	-774.57965	907.49365	-718.40564	-733.81177	847.77527	-718.14716	-681.60681	993.79913	-1164.76501	-698.18341	971.0625	-906.59796	-899.61938	1027.79138	-1095.10181	-910.39252	1020.82104	-981.87854	-731.49432	681.69379	-1223.55042	-758.3559	477.84796	-1194.25793	-809.49731	288.35474	-1194.86523	-799.92432	65.70461	-1156.44751	-836.67004	37.1273	-1106.48376	-641.81293	31.11094	-1163.64087	-742.75391	667.46625	-826.69342	-712.20837	472.97314	-832.68201	-849.03632	352.68805	-840.80829	-972.61395	208.15883	-881.00043	-1017.68268	175.86108	-947.14917	-903.29071	71.71014	-832.30859	-793.30249	1799.91064	-1022.24347	2845.58374	1033.97986	-3357.30542	NaN	NaN	NaN
33	0.32	-671.05774	1734.85181	-1097.26892	-688.46619	1722.52441	-955.08716	-797.74152	1655.19446	-1118.44055	-826.84113	1640.78137	-978.89221	-863.20105	1524.06506	-1041.77612	-922.12085	1247.10364	-1037.87537	-725.91632	1449.17798	-1047.24304	-678.50574	1278.26147	-1034.29749	-926.56232	1350.31372	-977.18646	-782.8653	1490.92041	-1220.01648	-779.41901	1289.18701	-1305.99988	-770.27325	1149.64087	-1321.52917	-743.9408	1021.29749	-1337.63525	-674.36334	903.72919	-1306.25305	-717.9707	901.35516	-1342.77551	-689.45642	841.60345	-1348.16064	-788.0575	1490.14758	-852.68011	-822.48065	1301.92285	-765.73187	-810.41888	1155.49353	-748.64246	-777.55664	1038.27087	-730.85687	-725.14355	913.87561	-753.13037	-771.24817	908.04315	-719.52893	-730.63367	848.10767	-718.99524	-674.78674	994.37885	-1166.90955	-690.60864	972.55957	-909.09204	-892.32404	1028.01343	-1096.49146	-902.64252	1021.48572	-983.07361	-727.42438	681.20642	-1224.38745	-755.47528	477.60007	-1194.81812	-807.95959	288.44879	-1195.10144	-799.78302	65.47133	-1156.13342	-836.71625	37.31495	-1106.40283	-642.09833	31.10676	-1164.01978	-729.86322	669.01575	-828.20264	-696.14648	474.78268	-834.99237	-830.01068	351.25571	-843.1723	-949.62024	203.12967	-882.7771	-994.23541	169.16946	-948.50232	-875.24554	70.16426	-833.2243	-785.34338	1800.26758	-1023.72998	2845.92358	1033.76636	-3357.54443	NaN	NaN	NaN
